<svg width="2970" height="1130" viewBox="0 0 2970 1130" fill="none" xmlns="http://www.w3.org/2000/svg">
<rect width="2970" height="1130" fill="white"/>
<path d="M797.4 715C794.067 715 792.4 713.333 792.4 710V453.4C792.4 450.067 794.067 448.4 797.4 448.4H870.6C873.933 448.4 875.6 450.067 875.6 453.4V541.6H892.4V453.4C892.4 450.067 894.067 448.4 897.4 448.4H970.6C973.933 448.4 975.6 450.067 975.6 453.4V710C975.6 713.333 973.933 715 970.6 715H897.4C894.067 715 892.4 713.333 892.4 710V621.6H875.6V710C875.6 713.333 873.933 715 870.6 715H797.4ZM1043.6 715C1040.53 715 1037.87 713.867 1035.6 711.6L995.6 671.6C993.467 669.467 992.4 666.8 992.4 663.6V546.4C992.4 543.2 993.467 540.533 995.6 538.4L1035.6 498.4C1037.87 496.133 1040.53 495 1043.6 495H1104.4C1107.47 495 1110.13 496.133 1112.4 498.4L1152.4 538.4C1154.53 540.533 1155.6 543.2 1155.6 546.4V663.6C1155.6 666.8 1154.53 669.467 1152.4 671.6L1112.4 711.6C1110.13 713.867 1107.47 715 1104.4 715H1043.6ZM1073.6 648.4H1074C1076.67 648.4 1078.73 647.667 1080.2 646.2C1081.67 644.733 1082.4 642.667 1082.4 640V570C1082.4 567.333 1081.67 565.267 1080.2 563.8C1078.73 562.333 1076.67 561.6 1074 561.6H1073.4C1070.73 561.6 1068.73 562.333 1067.4 563.8C1066.2 565.267 1065.6 567.333 1065.6 570V640C1065.6 642.667 1066.27 644.733 1067.6 646.2C1069.07 647.667 1071.07 648.4 1073.6 648.4ZM1223.68 715C1220.61 715 1217.94 713.867 1215.68 711.6L1175.68 671.6C1173.54 669.467 1172.48 666.8 1172.48 663.6V500C1172.48 496.667 1174.14 495 1177.48 495H1240.68C1244.01 495 1245.68 496.667 1245.68 500V641.6H1262.48V500C1262.48 496.667 1264.14 495 1267.48 495H1330.68C1334.01 495 1335.68 496.667 1335.68 500V663.6C1335.68 666.8 1334.61 669.467 1332.48 671.6L1292.48 711.6C1290.21 713.867 1287.54 715 1284.48 715H1223.68ZM1434.16 715C1433.22 715 1432.22 714.867 1431.16 714.6C1430.22 714.333 1429.22 713.933 1428.16 713.4L1391.56 696L1356.16 679C1353.76 677.933 1352.56 675.267 1352.56 671V546.4C1352.56 543.2 1353.62 540.533 1355.76 538.4L1395.76 498.4C1398.02 496.133 1400.69 495 1403.76 495H1464.56C1467.62 495 1470.29 496.133 1472.56 498.4L1512.56 538.4C1514.69 540.533 1515.76 543.2 1515.76 546.4V628.4H1428.56V636L1445.16 643.4L1483.56 654.4C1485.02 654.533 1485.76 656.6 1485.76 660.6V710C1485.76 713.333 1484.09 715 1480.76 715H1434.16ZM1436.76 590.4H1437.16C1442.22 590.4 1446.02 588.933 1448.56 586C1451.22 583.067 1452.56 578.733 1452.56 573V572.4C1452.56 566.667 1451.22 562.333 1448.56 559.4C1446.02 556.467 1442.22 555 1437.16 555H1436.56C1431.89 555 1428.22 556.467 1425.56 559.4C1423.02 562.333 1421.76 566.667 1421.76 572.4V573C1421.76 578.733 1423.02 583.067 1425.56 586C1428.09 588.933 1431.82 590.4 1436.76 590.4ZM1537.63 715C1534.3 715 1532.63 713.333 1532.63 710V500C1532.63 496.667 1534.3 495 1537.63 495H1589.23C1591.5 495 1593.7 496.133 1595.83 498.4L1605.63 508.2L1617.23 497.4C1619.1 495.8 1621.23 495 1623.63 495H1638.63C1641.97 495 1643.63 496.667 1643.63 500V568C1643.63 570.133 1643.43 571.6 1643.03 572.4C1642.77 573.067 1642.03 573.8 1640.83 574.6L1605.83 598.4V710C1605.83 713.333 1604.17 715 1600.83 715H1537.63ZM1658.73 715C1655.39 715 1653.73 713.333 1653.73 710V453.4C1653.73 450.067 1655.39 448.4 1658.73 448.4H1721.93C1725.26 448.4 1726.93 450.067 1726.93 453.4V508.4L1736.93 498.4C1739.19 496.133 1741.86 495 1744.93 495H1765.73C1768.79 495 1771.46 496.133 1773.73 498.4L1813.73 538.4C1815.86 540.533 1816.93 543.2 1816.93 546.4V663.6C1816.93 666.8 1815.86 669.467 1813.73 671.6L1773.73 711.6C1771.46 713.867 1768.79 715 1765.73 715H1658.73ZM1726.93 648.4H1735.33C1737.99 648.4 1740.06 647.667 1741.53 646.2C1742.99 644.733 1743.73 642.667 1743.73 640V570C1743.73 567.333 1743.06 565.267 1741.73 563.8C1740.39 562.333 1738.39 561.6 1735.73 561.6H1734.93C1732.39 561.6 1730.39 562.333 1728.93 563.8C1727.59 565.267 1726.93 567.333 1726.93 570V648.4ZM1915.41 715C1914.47 715 1913.47 714.867 1912.41 714.6C1911.47 714.333 1910.47 713.933 1909.41 713.4L1872.81 696L1837.41 679C1835.01 677.933 1833.81 675.267 1833.81 671V546.4C1833.81 543.2 1834.87 540.533 1837.01 538.4L1877.01 498.4C1879.27 496.133 1881.94 495 1885.01 495H1945.81C1948.87 495 1951.54 496.133 1953.81 498.4L1993.81 538.4C1995.94 540.533 1997.01 543.2 1997.01 546.4V628.4H1909.81V636L1926.41 643.4L1964.81 654.4C1966.27 654.533 1967.01 656.6 1967.01 660.6V710C1967.01 713.333 1965.34 715 1962.01 715H1915.41ZM1918.01 590.4H1918.41C1923.47 590.4 1927.27 588.933 1929.81 586C1932.47 583.067 1933.81 578.733 1933.81 573V572.4C1933.81 566.667 1932.47 562.333 1929.81 559.4C1927.27 556.467 1923.47 555 1918.41 555H1917.81C1913.14 555 1909.47 556.467 1906.81 559.4C1904.27 562.333 1903.01 566.667 1903.01 572.4V573C1903.01 578.733 1904.27 583.067 1906.81 586C1909.34 588.933 1913.07 590.4 1918.01 590.4ZM2095.48 715C2094.55 715 2093.55 714.867 2092.48 714.6C2091.55 714.333 2090.55 713.933 2089.48 713.4L2052.88 696L2017.48 679C2015.08 677.933 2013.88 675.267 2013.88 671V546.4C2013.88 543.2 2014.95 540.533 2017.08 538.4L2057.08 498.4C2059.35 496.133 2062.02 495 2065.08 495H2125.88C2128.95 495 2131.62 496.133 2133.88 498.4L2173.88 538.4C2176.02 540.533 2177.08 543.2 2177.08 546.4V628.4H2089.88V636L2106.48 643.4L2144.88 654.4C2146.35 654.533 2147.08 656.6 2147.08 660.6V710C2147.08 713.333 2145.42 715 2142.08 715H2095.48ZM2098.08 590.4H2098.48C2103.55 590.4 2107.35 588.933 2109.88 586C2112.55 583.067 2113.88 578.733 2113.88 573V572.4C2113.88 566.667 2112.55 562.333 2109.88 559.4C2107.35 556.467 2103.55 555 2098.48 555H2097.88C2093.22 555 2089.55 556.467 2086.88 559.4C2084.35 562.333 2083.08 566.667 2083.08 572.4V573C2083.08 578.733 2084.35 583.067 2086.88 586C2089.42 588.933 2093.15 590.4 2098.08 590.4Z" fill="#6E0429"/>
<path opacity="0.11" d="M767.4 755C764.067 755 762.4 753.333 762.4 750V493.4C762.4 490.067 764.067 488.4 767.4 488.4H840.6C843.933 488.4 845.6 490.067 845.6 493.4V581.6H862.4V493.4C862.4 490.067 864.067 488.4 867.4 488.4H940.6C943.933 488.4 945.6 490.067 945.6 493.4V750C945.6 753.333 943.933 755 940.6 755H867.4C864.067 755 862.4 753.333 862.4 750V661.6H845.6V750C845.6 753.333 843.933 755 840.6 755H767.4ZM1013.6 755C1010.53 755 1007.87 753.867 1005.6 751.6L965.6 711.6C963.467 709.467 962.4 706.8 962.4 703.6V586.4C962.4 583.2 963.467 580.533 965.6 578.4L1005.6 538.4C1007.87 536.133 1010.53 535 1013.6 535H1074.4C1077.47 535 1080.13 536.133 1082.4 538.4L1122.4 578.4C1124.53 580.533 1125.6 583.2 1125.6 586.4V703.6C1125.6 706.8 1124.53 709.467 1122.4 711.6L1082.4 751.6C1080.13 753.867 1077.47 755 1074.4 755H1013.6ZM1043.6 688.4H1044C1046.67 688.4 1048.73 687.667 1050.2 686.2C1051.67 684.733 1052.4 682.667 1052.4 680V610C1052.4 607.333 1051.67 605.267 1050.2 603.8C1048.73 602.333 1046.67 601.6 1044 601.6H1043.4C1040.73 601.6 1038.73 602.333 1037.4 603.8C1036.2 605.267 1035.6 607.333 1035.6 610V680C1035.6 682.667 1036.27 684.733 1037.6 686.2C1039.07 687.667 1041.07 688.4 1043.6 688.4ZM1193.68 755C1190.61 755 1187.94 753.867 1185.68 751.6L1145.68 711.6C1143.54 709.467 1142.48 706.8 1142.48 703.6V540C1142.48 536.667 1144.14 535 1147.48 535H1210.68C1214.01 535 1215.68 536.667 1215.68 540V681.6H1232.48V540C1232.48 536.667 1234.14 535 1237.48 535H1300.68C1304.01 535 1305.68 536.667 1305.68 540V703.6C1305.68 706.8 1304.61 709.467 1302.48 711.6L1262.48 751.6C1260.21 753.867 1257.54 755 1254.48 755H1193.68ZM1404.16 755C1403.22 755 1402.22 754.867 1401.16 754.6C1400.22 754.333 1399.22 753.933 1398.16 753.4L1361.56 736L1326.16 719C1323.76 717.933 1322.56 715.267 1322.56 711V586.4C1322.56 583.2 1323.62 580.533 1325.76 578.4L1365.76 538.4C1368.02 536.133 1370.69 535 1373.76 535H1434.56C1437.62 535 1440.29 536.133 1442.56 538.4L1482.56 578.4C1484.69 580.533 1485.76 583.2 1485.76 586.4V668.4H1398.56V676L1415.16 683.4L1453.56 694.4C1455.02 694.533 1455.76 696.6 1455.76 700.6V750C1455.76 753.333 1454.09 755 1450.76 755H1404.16ZM1406.76 630.4H1407.16C1412.22 630.4 1416.02 628.933 1418.56 626C1421.22 623.067 1422.56 618.733 1422.56 613V612.4C1422.56 606.667 1421.22 602.333 1418.56 599.4C1416.02 596.467 1412.22 595 1407.16 595H1406.56C1401.89 595 1398.22 596.467 1395.56 599.4C1393.02 602.333 1391.76 606.667 1391.76 612.4V613C1391.76 618.733 1393.02 623.067 1395.56 626C1398.09 628.933 1401.82 630.4 1406.76 630.4ZM1507.63 755C1504.3 755 1502.63 753.333 1502.63 750V540C1502.63 536.667 1504.3 535 1507.63 535H1559.23C1561.5 535 1563.7 536.133 1565.83 538.4L1575.63 548.2L1587.23 537.4C1589.1 535.8 1591.23 535 1593.63 535H1608.63C1611.97 535 1613.63 536.667 1613.63 540V608C1613.63 610.133 1613.43 611.6 1613.03 612.4C1612.77 613.067 1612.03 613.8 1610.83 614.6L1575.83 638.4V750C1575.83 753.333 1574.17 755 1570.83 755H1507.63ZM1628.73 755C1625.39 755 1623.73 753.333 1623.73 750V493.4C1623.73 490.067 1625.39 488.4 1628.73 488.4H1691.93C1695.26 488.4 1696.93 490.067 1696.93 493.4V548.4L1706.93 538.4C1709.19 536.133 1711.86 535 1714.93 535H1735.73C1738.79 535 1741.46 536.133 1743.73 538.4L1783.73 578.4C1785.86 580.533 1786.93 583.2 1786.93 586.4V703.6C1786.93 706.8 1785.86 709.467 1783.73 711.6L1743.73 751.6C1741.46 753.867 1738.79 755 1735.73 755H1628.73ZM1696.93 688.4H1705.33C1707.99 688.4 1710.06 687.667 1711.53 686.2C1712.99 684.733 1713.73 682.667 1713.73 680V610C1713.73 607.333 1713.06 605.267 1711.73 603.8C1710.39 602.333 1708.39 601.6 1705.73 601.6H1704.93C1702.39 601.6 1700.39 602.333 1698.93 603.8C1697.59 605.267 1696.93 607.333 1696.93 610V688.4ZM1885.41 755C1884.47 755 1883.47 754.867 1882.41 754.6C1881.47 754.333 1880.47 753.933 1879.41 753.4L1842.81 736L1807.41 719C1805.01 717.933 1803.81 715.267 1803.81 711V586.4C1803.81 583.2 1804.87 580.533 1807.01 578.4L1847.01 538.4C1849.27 536.133 1851.94 535 1855.01 535H1915.81C1918.87 535 1921.54 536.133 1923.81 538.4L1963.81 578.4C1965.94 580.533 1967.01 583.2 1967.01 586.4V668.4H1879.81V676L1896.41 683.4L1934.81 694.4C1936.27 694.533 1937.01 696.6 1937.01 700.6V750C1937.01 753.333 1935.34 755 1932.01 755H1885.41ZM1888.01 630.4H1888.41C1893.47 630.4 1897.27 628.933 1899.81 626C1902.47 623.067 1903.81 618.733 1903.81 613V612.4C1903.81 606.667 1902.47 602.333 1899.81 599.4C1897.27 596.467 1893.47 595 1888.41 595H1887.81C1883.14 595 1879.47 596.467 1876.81 599.4C1874.27 602.333 1873.01 606.667 1873.01 612.4V613C1873.01 618.733 1874.27 623.067 1876.81 626C1879.34 628.933 1883.07 630.4 1888.01 630.4ZM2065.48 755C2064.55 755 2063.55 754.867 2062.48 754.6C2061.55 754.333 2060.55 753.933 2059.48 753.4L2022.88 736L1987.48 719C1985.08 717.933 1983.88 715.267 1983.88 711V586.4C1983.88 583.2 1984.95 580.533 1987.08 578.4L2027.08 538.4C2029.35 536.133 2032.02 535 2035.08 535H2095.88C2098.95 535 2101.62 536.133 2103.88 538.4L2143.88 578.4C2146.02 580.533 2147.08 583.2 2147.08 586.4V668.4H2059.88V676L2076.48 683.4L2114.88 694.4C2116.35 694.533 2117.08 696.6 2117.08 700.6V750C2117.08 753.333 2115.42 755 2112.08 755H2065.48ZM2068.08 630.4H2068.48C2073.55 630.4 2077.35 628.933 2079.88 626C2082.55 623.067 2083.88 618.733 2083.88 613V612.4C2083.88 606.667 2082.55 602.333 2079.88 599.4C2077.35 596.467 2073.55 595 2068.48 595H2067.88C2063.22 595 2059.55 596.467 2056.88 599.4C2054.35 602.333 2053.08 606.667 2053.08 612.4V613C2053.08 618.733 2054.35 623.067 2056.88 626C2059.42 628.933 2063.15 630.4 2068.08 630.4Z" fill="#6E0429"/>
</svg>
